<svg width="30" height="24" fill="none" xmlns="http://www.w3.org/2000/svg"><path fill-rule="evenodd" clip-rule="evenodd" d="M3.008 0c-1.657 0-3 1.329-3 2.969v17.545c0 1.64 1.343 2.968 3 2.968h23.94c1.657 0 3-1.329 3-2.968V2.969c0-1.64-1.343-2.969-3-2.969H3.008zm-1 2.969c0-.547.447-.99 1-.99h23.94c.552 0 1 .443 1 .99v.267a1.01 1.01 0 00-1.152.034l-10.618 7.88a2.017 2.017 0 01-2.4 0L3.16 3.27a1.01 1.01 0 00-1.152-.034V2.97zm0 1.92v15.625c0 .546.447.99 1 .99h23.94c.552 0 1-.444 1-.99V4.888l-10.57 7.845a4.034 4.034 0 01-4.8 0L2.008 4.889z" fill="#000"/></svg>