<svg width="1913" height="707" fill="none" xmlns="http://www.w3.org/2000/svg"><path fill-rule="evenodd" clip-rule="evenodd" d="M584.202 25.137C473.048-21.678 365.948.826 306.28 60.243c-16.851 16.78-29.915 36.503-38.214 58.432-19.417 22.137-30.793 49.029-31.294 78.796-.607 36.045 14.733 76.237 50.917 117.249 26.005 29.474 69.25 56.799 125.308 80.646 32.214 17.604 69.534 33.619 111.013 47.806 47.053 16.094 99.473 29.84 155.889 40.884a236.29 236.29 0 01-19.788 27.67c-39.776 47.954-102.797 86.042-194.514 104.403C171.975 674.91 29.142 557.33-5.55 491.41l-.885.466c34.95 66.408 178.289 184.078 472.228 125.234 91.895-18.397 155.137-56.581 195.088-104.746a237.253 237.253 0 0020.065-28.104c23.176 4.52 47.025 8.584 71.45 12.167-8.963 21.476-20.439 42.067-34.635 61.35-43.232 58.728-111.715 105.356-211.363 127.833C187.395 757.565 32.181 613.644-5.539 532.886l-.906.423C31.5 614.55 187.22 758.63 506.618 686.585c99.852-22.523 168.556-69.27 211.949-128.215 14.297-19.421 25.844-40.163 34.85-61.793 38.328 5.599 78.072 10.016 118.865 13.158 261.868 20.167 567.078-12.236 818.928-122.277 100.67-43.988 176.93-64.355 233.9-68.303 56.98-3.949 94.61 8.52 118.11 30.137 23.5 21.618 32.96 52.466 33.42 85.469.45 33.003-8.11 68.107-20.59 98.145l.92.383c12.52-30.129 21.12-65.37 20.67-98.542-.46-33.172-9.97-64.326-33.74-86.191-23.78-21.866-61.72-34.359-118.85-30.399-57.14 3.96-133.52 24.373-234.24 68.385-251.66 109.959-556.7 142.354-818.451 122.196-40.684-3.134-80.321-7.536-118.547-13.114a310.163 310.163 0 006.823-18.131 1835.74 1835.74 0 0050.354 4.817c244.821 20.041 528.501-5.384 756.121-105.383 169.56-74.487 283.9-114.551 350.09-123.726 16.54-2.293 30.04-2.652 40.64-1.148 10.6 1.504 18.23 4.864 23.09 9.965 4.85 5.089 7.01 11.977 6.51 20.68-.49 8.714-3.65 19.221-9.39 31.479l.91.424c5.77-12.315 8.98-22.953 9.48-31.846.51-8.906-1.7-16.09-6.78-21.427-5.08-5.324-12.96-8.744-23.68-10.265-10.72-1.522-24.33-1.152-40.92 1.148-66.34 9.196-180.81 49.318-350.35 123.8-227.43 99.912-510.92 125.335-755.639 105.302a1834.621 1834.621 0 01-50.106-4.79c12.927-38.274 18.452-78.809 17.668-119.373-2.753-142.325-83.2-285.166-194.431-332.013zM759.947 476.41c12.937-38.214 18.47-78.706 17.686-119.241-2.748-142.05-83.051-284.46-193.819-331.112-110.847-46.685-217.496-24.19-276.828 34.894-16.118 16.05-28.747 34.801-37.026 55.606a149.86 149.86 0 0111.446-11.245c54.928-48.545 153.497-66.92 255.792-28.683 102.381 38.269 176.456 154.974 178.991 271.29.893 40.99-7.097 81.945-25.87 119.412a1733.792 1733.792 0 0069.628 9.079zM267.08 121.354c-18.216 21.585-28.827 47.528-29.308 76.134-.602 35.735 14.603 75.694 50.667 116.571 24.45 27.712 64.283 53.57 115.826 76.424-39.137-22.395-70.139-47.244-91.151-74.077-39.305-50.196-55.952-99.367-55.294-143.441.272-18.173 3.485-35.472 9.26-51.611zm146.353 273.11c-43.161-23.591-77.09-50.015-99.532-78.675-39.194-50.054-55.735-99.008-55.081-142.809.284-18.999 3.803-37.036 10.118-53.782a147.692 147.692 0 0113.13-13.136c54.595-48.25 152.754-66.632 254.78-28.495 101.94 38.104 175.814 154.403 178.341 270.375.893 40.949-7.112 81.845-25.91 119.233-75.171-11.423-144.386-27.22-204.274-46.357-25.664-8.2-49.609-17.012-71.572-26.354zm9.216 4.922c29.993 15.65 64.119 29.992 101.685 42.84 47.106 16.112 99.606 29.871 156.119 40.919a233.611 233.611 0 008.351-15.031c-75.092-11.426-144.246-27.216-204.104-46.343-21.99-7.027-42.73-14.505-62.051-22.385zm258.849 83.963c23.126 4.504 46.922 8.554 71.294 12.126a310.256 310.256 0 006.825-18.094 1736.157 1736.157 0 01-69.771-9.109 234.875 234.875 0 01-8.348 15.077z" fill="url(#paint0_linear_323_18)"/><defs><linearGradient id="paint0_linear_323_18" x1="1391.24" y1="1162.6" x2="930.44" y2="52.394" gradientUnits="userSpaceOnUse"><stop stop-color="#fff"/><stop offset="1" stop-color="#fff" stop-opacity="0"/></linearGradient></defs></svg>