<svg width="1913" height="707" fill="none" xmlns="http://www.w3.org/2000/svg"><path fill-rule="evenodd" clip-rule="evenodd" d="M1438.37 25.131C1558.65-21.673 1674.53.825 1739.1 60.23c18.23 16.777 32.37 36.499 41.35 58.43 21.02 22.136 33.34 49.031 33.88 78.811.66 36.058-15.95 76.255-55.11 117.264-28.15 29.47-74.94 56.792-135.61 80.637-34.87 17.603-75.26 33.618-120.15 47.804-50.92 16.094-107.66 29.84-168.72 40.884 6.29 9.516 13.41 18.754 21.4 27.651 43.05 47.958 111.27 86.053 210.55 104.417 317.83 58.787 472.44-58.81 509.99-124.732l.87.495c-37.82 66.406-192.94 184.058-511.04 125.22-99.44-18.394-167.88-56.571-211.11-104.732a237.798 237.798 0 01-21.74-28.125c-25.1 4.523-50.93 8.591-77.39 12.177a289.39 289.39 0 0037.47 61.331c46.8 58.73 120.93 105.365 228.79 127.846 345.31 71.964 513.32-71.98 554.14-152.736l.89.451c-41.07 81.244-209.59 225.3-555.23 153.264-108.05-22.519-182.41-69.259-229.37-128.201a290.425 290.425 0 01-37.73-61.815c-41.49 5.602-84.52 10.021-128.69 13.164-283.414 20.167-613.735-12.236-886.295-122.271-108.963-43.99-191.508-64.36-253.184-68.309-61.676-3.95-102.426 8.523-127.874 30.15-25.442 21.621-35.677 52.466-36.166 85.456-.489 32.996 8.775 68.096 22.282 98.131l-.912.41c-13.55-30.131-22.862-65.377-22.37-98.555.492-33.184 10.793-64.343 36.518-86.204 25.718-21.856 66.764-34.345 128.586-30.386 61.824 3.959 144.48 24.369 253.494 68.379 272.384 109.965 602.544 142.361 885.851 122.201 44.05-3.134 86.95-7.537 128.34-13.117a299.436 299.436 0 01-7.39-18.131 2144.06 2144.06 0 01-54.54 4.821c-264.963 20.04-571.977-5.384-818.325-105.378C191.046 302.446 67.282 262.378-4.364 253.202c-17.907-2.293-32.533-2.653-44.01-1.148-11.481 1.505-19.758 4.871-25.028 9.978-5.252 5.091-7.578 11.973-7.043 20.663.537 8.708 3.947 19.211 10.158 31.468l-.892.453c-6.24-12.316-9.716-22.958-10.264-31.859-.55-8.918 1.841-16.108 7.346-21.443 5.486-5.317 14.004-8.732 25.594-10.252 11.594-1.52 26.314-1.151 44.266 1.148 71.792 9.195 195.669 49.313 379.168 123.796 246.16 99.917 553.006 125.34 817.879 105.307 18.29-1.384 36.39-2.985 54.26-4.793-13.99-38.273-19.97-78.807-19.12-119.371 2.98-142.347 90.06-285.18 210.42-332.018zm-190.28 451.284c-14-38.216-19.99-78.709-19.14-119.245 2.97-142.027 89.87-284.444 209.78-331.107 120-46.695 235.46-24.193 299.69 34.902 17.48 16.08 31.16 34.87 40.12 55.715a157.77 157.77 0 00-12.52-11.38c-59.43-48.532-166.09-66.904-276.78-28.674-110.78 38.259-190.96 154.953-193.71 271.293-.97 40.991 7.68 81.945 27.99 119.409a2022.728 2022.728 0 01-75.43 9.087zm533.39-355.193c19.8 21.616 31.33 47.608 31.85 76.267.65 35.721-15.8 75.676-54.84 116.555-26.49 27.745-69.67 53.63-125.54 76.505 42.4-22.408 75.99-47.274 98.75-74.128 42.54-50.194 60.56-99.371 59.85-143.457-.3-18.223-3.79-35.567-10.07-51.742zM1623.2 394.458c46.72-23.594 83.44-50.021 107.74-78.684 42.42-50.056 60.32-99.005 59.61-142.794-.31-18.992-4.12-37.025-10.95-53.768-4.37-4.59-9.11-8.974-14.21-13.137-59.11-48.263-165.38-66.649-275.82-28.504-110.36 38.115-190.3 154.423-193.04 270.372-.96 40.948 7.7 81.846 28.05 119.237 81.38-11.423 156.31-27.223 221.15-46.365 27.78-8.201 53.69-17.014 77.47-26.357zm-9.87 4.87c-32.49 15.672-69.46 30.032-110.17 42.895-51 16.117-107.84 29.879-169.02 40.929-3.24-4.94-6.25-9.954-9.05-15.034 81.28-11.425 156.13-27.216 220.92-46.344 23.86-7.045 46.36-14.544 67.32-22.446zm-280.26 84.017c-25.05 4.507-50.83 8.561-77.23 12.135a297.937 297.937 0 01-7.39-18.096c25.72-2.619 50.95-5.668 75.59-9.117 2.79 5.094 5.8 10.123 9.03 15.078z" fill="url(#paint0_linear_323_19)"/><defs><linearGradient id="paint0_linear_323_19" x1="564.892" y1="1162.6" x2="1000.01" y2="28.008" gradientUnits="userSpaceOnUse"><stop stop-color="#fff"/><stop offset="1" stop-color="#fff" stop-opacity="0"/></linearGradient></defs></svg>